<?xml version="1.0" encoding="UTF-8"?>
<svg id="Layer_1" data-name="Layer 1" xmlns="http://www.w3.org/2000/svg" viewBox="0 0 190.99 59.26"><defs><style>.cls-1{fill:#010101;}</style></defs><title>Untitled-1</title><path class="cls-1" d="M138.38,62.21a5,5,0,0,1,1.15,6.48,11.68,11.68,0,0,1-1.44,1.8,10.3,10.3,0,0,1-3.17,2.09,28.4,28.4,0,0,1-5.69,1.8,41.38,41.38,0,0,1-8.86.79q-3.89,0-8.35-.43-3.75-.29-7.92-.79t-8.35-1.37A14.55,14.55,0,0,0,93.82,75a32,32,0,0,1-2.09,2.81q-2.59,3-5.54,6.26t-6.26,6.41a10.07,10.07,0,0,0-1.08.94,10.23,10.23,0,0,1-1.08.94,14.36,14.36,0,0,0,3.1.29,22,22,0,0,0,4.82-.72q.57-.57,1.08-1.15a7.14,7.14,0,0,1,1.08-1A10.84,10.84,0,0,1,89.21,89q.93-.43,1.22.72t-1.3,1.73q-.72.29-1.44.65a5.5,5.5,0,0,1-1.58.5Q85,94,84,95.4a12.5,12.5,0,0,0-1.44,2.38c0,.1-.14.14-.43.14a.13.13,0,0,1-.14-.14v-.29q.43-.86,1.22-2.16a13.11,13.11,0,0,1,1.94-2.45,42,42,0,0,1-4.82.43,17.15,17.15,0,0,1-3.1-.29,80.65,80.65,0,0,1-10.94,8.06,42,42,0,0,1-13.39,5.33,11,11,0,0,1-1.73.43,17.29,17.29,0,0,0-1.87.43,5.28,5.28,0,0,1-.29,4.46,9.8,9.8,0,0,1-4.1,4.18,13.58,13.58,0,0,1-7,1.73,15.43,15.43,0,0,1-3.46-.43c-.29,0-.34-.1-.14-.29a.25.25,0,0,1,.29-.29,14.28,14.28,0,0,0,8.86-.72q3.81-1.73,5-4.46a4.89,4.89,0,0,0,.14-4.18q-.86.15-3.46.36a42,42,0,0,1-5.54.07,28.49,28.49,0,0,1-5.54-.79,5.3,5.3,0,0,1-3.46-2.09,2.58,2.58,0,0,1,.72-3.46,6,6,0,0,1,2.66-1.22,12.32,12.32,0,0,1,3.82-.14,15.69,15.69,0,0,1,4.54,1.22,19.63,19.63,0,0,1,4.68,2.88,16.87,16.87,0,0,1,1.44,1.58,55.27,55.27,0,0,0,12.38-5A101.77,101.77,0,0,0,73.3,92.45q-3-.57-5.33-.94t-3.46-.65c-.19-.19-.29-.34-.29-.43.19-.19.33-.29.43-.29q1.15.29,3.6.72l5.76,1q5.62-4.32,10.8-9.14T95,72.43Q89.13,71,83.38,69L72.22,65.16q-5.69-1.94-11.52-3.38A99.34,99.34,0,0,0,49,59.62a54.13,54.13,0,0,0-11.81-.14,45.79,45.79,0,0,0-8.42,1.94,43.42,43.42,0,0,0-7.56,3.31,24.7,24.7,0,0,0-5.9,4.54,16.92,16.92,0,0,0-3.6,5.62,8.65,8.65,0,0,0,.14,6.77,10.67,10.67,0,0,0,4.32,4.18,20.49,20.49,0,0,1,3-4.75,34.26,34.26,0,0,1,10.73-8A34.85,34.85,0,0,1,43.2,69.41a58.78,58.78,0,0,1,9.22.14,39.33,39.33,0,0,1,7.92,1.51,21.47,21.47,0,0,1,5.76,2.66A6.85,6.85,0,0,1,69,77.18a5.3,5.3,0,0,1-.65,3.74q-1.08,2.16-6,4.9a46.25,46.25,0,0,1-7.56,2.88,66.44,66.44,0,0,1-9.43,2,60.68,60.68,0,0,1-10.3.58,47.76,47.76,0,0,1-10-1.3,37,37,0,0,1-4.75-1.37,24.09,24.09,0,0,1-3.89-1.8,11.7,11.7,0,0,0-1.15,4c.19.58.33,1.06.43,1.44a18.48,18.48,0,0,1,.29,3c0,.82-.34,1.13-1,.94a2.29,2.29,0,0,1-.79-2c0-.86.17-2,.36-3.31a11.44,11.44,0,0,1,.5-2.23q.36-1.08.79-2.23a10.87,10.87,0,0,1-4.61-4.46,8.93,8.93,0,0,1-.14-7.2,18.63,18.63,0,0,1,5.33-7.27,33.36,33.36,0,0,1,8.78-5.4A46,46,0,0,1,36.14,59,46.46,46.46,0,0,1,48,58.61a102.85,102.85,0,0,1,15,1.73q7.63,1.44,14.47,3.17t12.46,3.38q5.62,1.66,8.78,2.52,5.47,1.44,10.94,2.45a96.31,96.31,0,0,0,10.3,1.37,57.9,57.9,0,0,0,8.64.07,18,18,0,0,0,6.26-1.44,8.84,8.84,0,0,0,4.18-3.6,4.41,4.41,0,0,0-1-5.62,6.64,6.64,0,0,0-3-1.66,6.26,6.26,0,0,0-4.18.5,1.82,1.82,0,0,0-.58.5,3.13,3.13,0,0,1-.72.65,9.06,9.06,0,0,1-2.3,1.51q-1.15.51-1.3-.5t1.08-1.37q1.08-.5,3.1-1.22a7.94,7.94,0,0,1,4.9-.65A7,7,0,0,1,138.38,62.21ZM18,83.66a8.31,8.31,0,0,1-.65,1.3,8.06,8.06,0,0,0-.65,1.3,36,36,0,0,0,8.5,3.17,44.59,44.59,0,0,0,9.94,1.22,70.73,70.73,0,0,0,10.15-.58,58.8,58.8,0,0,0,9.29-1.94,47,47,0,0,0,7.49-2.88q7.49-3.89,6.34-7.78-.58-2.3-4.32-4.18a10.89,10.89,0,0,0-1.73-.5l-1.73-.36a63.45,63.45,0,0,0-9.07-.29,74,74,0,0,0-11.74,1.3,59.15,59.15,0,0,0-12,3.6A29.27,29.27,0,0,0,18,83.66ZM41.33,107q1.58-.29,3.17-.5a31.07,31.07,0,0,0,3.31-.65l-.58-.58a4.93,4.93,0,0,0-.72-.58,16,16,0,0,0-5.26-3.24,14.74,14.74,0,0,0-4.82-.94q-3.31,0-4.75,1.44a2.62,2.62,0,0,0-.79.94,1.4,1.4,0,0,0,.22,1.51Q32,106,35,106.49A38.39,38.39,0,0,0,41.33,107ZM88.27,90.14a8.27,8.27,0,0,0-1.44,1.58q2.59-.86,2.81-1.66T88.27,90.14Z" transform="translate(-10.4 -58.39)"/><path class="cls-1" d="M97,93.62l-4.57,6.66.07.07q.5-.61,1.28-1.42t1.69-1.66q.92-.85,1.93-1.67a24.69,24.69,0,0,1,2-1.48,2.21,2.21,0,0,1,.4-.58,1.25,1.25,0,0,1,.86-.22l.7,0,.63.05a9.31,9.31,0,0,0-1.19,1.49,3.45,3.45,0,0,0-.58,1.93,1.89,1.89,0,0,0,.41,1.3,1.32,1.32,0,0,0,1,.47,2.77,2.77,0,0,0,1.06-.22,5.35,5.35,0,0,0,1-.54q.47-.32.9-.68l.76-.65.22.14q-.36.36-.83.77a9.32,9.32,0,0,1-1,.77,5.87,5.87,0,0,1-1.15.59,3.49,3.49,0,0,1-1.26.23,2.51,2.51,0,0,1-1.85-.7,2.66,2.66,0,0,1-.7-2,3,3,0,0,1,.4-1.55l-.07-.07a28.44,28.44,0,0,0-3.24,2.65Q94.08,99,92.1,101.25a13.1,13.1,0,0,0-1.49,2.09A21.25,21.25,0,0,0,89.25,106H86.91q1.94-3.1,3.89-6.16t4-6.23Z" transform="translate(-10.4 -58.39)"/><path class="cls-1" d="M114.92,93.62h2.34q-1.33,1.87-2.56,3.64t-2.18,3.26q-1,1.49-1.53,2.63a4.33,4.33,0,0,0-.58,1.78q0,.94,1,.94a3.9,3.9,0,0,0,1.93-.74,17,17,0,0,0,2.54-2,35.31,35.31,0,0,0,2.81-3,42.88,42.88,0,0,0,2.74-3.67l.22.07q-1,1.48-2.29,3.19a35.69,35.69,0,0,1-2.75,3.19,19.43,19.43,0,0,1-2.88,2.47,4.84,4.84,0,0,1-2.7,1,2,2,0,0,1-1.53-.52,1.76,1.76,0,0,1-.49-1.24,3.12,3.12,0,0,1,.16-1c.11-.32.22-.65.34-1l-.07,0q-.47.51-1.17,1.17a13.79,13.79,0,0,1-1.51,1.24,10.26,10.26,0,0,1-1.67,1,4,4,0,0,1-1.66.4,2.06,2.06,0,0,1-1.87-.83,3.35,3.35,0,0,1-.54-1.87,7.1,7.1,0,0,1,.94-3.26A15.75,15.75,0,0,1,104.3,97a14.83,14.83,0,0,1,3.13-2.61,6.14,6.14,0,0,1,3.2-1,3.66,3.66,0,0,1,1.26.2,2.57,2.57,0,0,1,.9.54,2.5,2.5,0,0,1,.56.77,4.73,4.73,0,0,1,.31.9h.07ZM103.15,103.7a2.07,2.07,0,0,0,.34,1.28,1.13,1.13,0,0,0,1,.45,3.12,3.12,0,0,0,1.44-.45,10.53,10.53,0,0,0,1.73-1.21,17.36,17.36,0,0,0,1.78-1.75A14.8,14.8,0,0,0,111,99.92a13.25,13.25,0,0,0,1.12-2.27,6.25,6.25,0,0,0,.43-2.2,1.55,1.55,0,0,0-1.62-1.69,4.33,4.33,0,0,0-2.41.94A12.69,12.69,0,0,0,106,97.09a15,15,0,0,0-2,3.22A8.11,8.11,0,0,0,103.15,103.7Z" transform="translate(-10.4 -58.39)"/><path class="cls-1" d="M124.89,93.62l-4.75,6.59.07.07L122,98.17a25.8,25.8,0,0,1,2.16-2.29,13.86,13.86,0,0,1,2.39-1.82,4.8,4.8,0,0,1,2.47-.74,2.27,2.27,0,0,1,1.67.59,2.07,2.07,0,0,1,.59,1.53,3.07,3.07,0,0,1-.41,1.37,17.19,17.19,0,0,1-1,1.69q-.61.9-1.33,1.84t-1.33,1.78q-.61.85-1,1.55a2.46,2.46,0,0,0-.41,1.17.89.89,0,0,0,1,1,4.8,4.8,0,0,0,2.45-.77,16.58,16.58,0,0,0,3.1-2.61q.72-.72,1.46-1.58t1.42-1.71q.68-.85,1.24-1.6t.88-1.26l.25.14q-.72,1.08-1.85,2.57T133.21,102q-.79.86-1.62,1.66a15.36,15.36,0,0,1-1.66,1.39,8.51,8.51,0,0,1-1.64.94,4.1,4.1,0,0,1-1.6.34,2.59,2.59,0,0,1-1.73-.58,2,2,0,0,1-.68-1.58,4.3,4.3,0,0,1,.86-2.36q.86-1.28,1.91-2.57T129,96.71a3.73,3.73,0,0,0,.86-2.09.76.76,0,0,0-.29-.65,1.23,1.23,0,0,0-.76-.22,4,4,0,0,0-2,.67,13.48,13.48,0,0,0-2.29,1.76,33,33,0,0,0-2.34,2.45Q121,100,120,101.34t-1.8,2.59A20.38,20.38,0,0,0,117,106h-2.23q.94-1.58,2-3.22l2.11-3.24q1-1.6,2-3.1t1.71-2.72Z" transform="translate(-10.4 -58.39)"/><path class="cls-1" d="M149.33,97a21.78,21.78,0,0,1-2.18,2.86,27.56,27.56,0,0,1-2.93,2.86,21,21,0,0,1-3.89,2.61,8.37,8.37,0,0,1-3.82,1,3.52,3.52,0,0,1-2.23-.7,2.46,2.46,0,0,1-.9-2.07,7.29,7.29,0,0,1,1-3.53,14.58,14.58,0,0,1,2.48-3.29,13.53,13.53,0,0,1,3.28-2.43,7.28,7.28,0,0,1,3.37-.94,4.1,4.1,0,0,1,1.82.38,1.34,1.34,0,0,1,.77,1.31,1.11,1.11,0,0,1-.23.72,1.83,1.83,0,0,1-.58.47,3,3,0,0,1-.76.27,7.06,7.06,0,0,1-.74.13,7.57,7.57,0,0,0,.25-.74,2.79,2.79,0,0,0,.11-.77q0-1.33-1.26-1.33a4,4,0,0,0-2.21.92A12.5,12.5,0,0,0,138.26,97a15.06,15.06,0,0,0-1.93,3.1,7.72,7.72,0,0,0-.79,3.28A3,3,0,0,0,136,105a1.54,1.54,0,0,0,1.39.68,6.58,6.58,0,0,0,2.9-.83,18.83,18.83,0,0,0,3.19-2.05,26.74,26.74,0,0,0,5.62-6.08Z" transform="translate(-10.4 -58.39)"/><path class="cls-1" d="M161.57,96.68a23.6,23.6,0,0,1-1.35,2,22.57,22.57,0,0,1-1.84,2.14,29.72,29.72,0,0,1-2.2,2.05,19.71,19.71,0,0,1-2.43,1.76,13.25,13.25,0,0,1-2.54,1.22,7.52,7.52,0,0,1-2.5.45,3.29,3.29,0,0,1-2.34-.77,2.88,2.88,0,0,1-.83-2.21,7,7,0,0,1,1-3.33,14.14,14.14,0,0,1,2.43-3.22,14.41,14.41,0,0,1,3.24-2.45,7,7,0,0,1,3.38-1,2.3,2.3,0,0,1,1.4.38,1.29,1.29,0,0,1,.5,1.1,2.26,2.26,0,0,1-.94,1.67A10.74,10.74,0,0,1,154.25,98a23.52,23.52,0,0,1-2.9,1.19,24.75,24.75,0,0,1-2.74.77,7.59,7.59,0,0,0-.65,1.62,6.65,6.65,0,0,0-.25,1.8,4,4,0,0,0,.09.85,2.59,2.59,0,0,0,.29.76,1.6,1.6,0,0,0,.54.56,1.56,1.56,0,0,0,.85.22,6.61,6.61,0,0,0,2.79-.77,18.16,18.16,0,0,0,3.26-2.07,26,26,0,0,0,3.17-3,22.54,22.54,0,0,0,2.59-3.42Zm-5.83-1.91a1,1,0,0,0-.27-.76.94.94,0,0,0-.67-.25,3,3,0,0,0-1.64.59,11.33,11.33,0,0,0-1.75,1.48,14.74,14.74,0,0,0-1.57,1.89,11.78,11.78,0,0,0-1.06,1.8,13.53,13.53,0,0,0,2-.56,14.32,14.32,0,0,0,2.29-1A8.19,8.19,0,0,0,155,96.51,2.47,2.47,0,0,0,155.74,94.77Z" transform="translate(-10.4 -58.39)"/><path class="cls-1" d="M173.45,96.71a31.44,31.44,0,0,1-2.5,3.44,22.2,22.2,0,0,1-3.11,3.08,15.37,15.37,0,0,1-3.69,2.21,10.83,10.83,0,0,1-4.27.85,5.89,5.89,0,0,1-1.62-.22,3.85,3.85,0,0,1-1.31-.65,3.23,3.23,0,0,1-.9-1.1,3.39,3.39,0,0,1-.34-1.57,2.62,2.62,0,0,1,.61-1.69,2,2,0,0,1,1.66-.76,1.38,1.38,0,0,1,.88.27,1,1,0,0,1,.34.81,1.47,1.47,0,0,1-.25.86.86.86,0,0,1-.76.36.89.89,0,0,1-.63-.22,1,1,0,0,1-.31-.54,1.11,1.11,0,0,0-.54.63,2.57,2.57,0,0,0-.14.85,2.11,2.11,0,0,0,1,1.89,3.79,3.79,0,0,0,2.14.63,2.69,2.69,0,0,0,1.31-.31,3,3,0,0,0,.94-.79,3.24,3.24,0,0,0,.56-1.13,4.84,4.84,0,0,0,.18-1.3,4.71,4.71,0,0,0-.23-1.42q-.24-.74-.52-1.46T161.36,98a3.9,3.9,0,0,1-.25-1.31,3.07,3.07,0,0,1,.32-1.42,3.15,3.15,0,0,1,.88-1.06,4.22,4.22,0,0,1,1.28-.67,4.88,4.88,0,0,1,1.51-.23,4,4,0,0,1,2.34.63,2,2,0,0,1,.9,1.67,1.49,1.49,0,0,1-.7,1.37,2.93,2.93,0,0,1-1.57.43,4.75,4.75,0,0,0,.38-1,3.69,3.69,0,0,0,.16-1,1.71,1.71,0,0,0-.45-1.21,1.66,1.66,0,0,0-1.28-.49,1.86,1.86,0,0,0-1.55.63,2.37,2.37,0,0,0-.5,1.53,4.27,4.27,0,0,0,.27,1.51,14.88,14.88,0,0,0,.63,1.44q.32.72.59,1.48a5,5,0,0,1,.27,1.69,3,3,0,0,1-.31,1.31,4.44,4.44,0,0,1-.81,1.15,5,5,0,0,1-1.13.88,3.85,3.85,0,0,1-1.28.47l.07.07a10.46,10.46,0,0,0,3.71-1.13,17.28,17.28,0,0,0,3.29-2.23A23.69,23.69,0,0,0,171,99.68a31.87,31.87,0,0,0,2.27-3.08Z" transform="translate(-10.4 -58.39)"/><path class="cls-1" d="M185.3,97a21.78,21.78,0,0,1-2.18,2.86,27.56,27.56,0,0,1-2.93,2.86,21,21,0,0,1-3.89,2.61,8.37,8.37,0,0,1-3.82,1,3.52,3.52,0,0,1-2.23-.7,2.46,2.46,0,0,1-.9-2.07,7.29,7.29,0,0,1,1-3.53,14.58,14.58,0,0,1,2.48-3.29,13.53,13.53,0,0,1,3.28-2.43,7.28,7.28,0,0,1,3.37-.94,4.1,4.1,0,0,1,1.82.38,1.34,1.34,0,0,1,.77,1.31,1.11,1.11,0,0,1-.23.72,1.83,1.83,0,0,1-.58.47,3,3,0,0,1-.76.27,7.06,7.06,0,0,1-.74.13,7.57,7.57,0,0,0,.25-.74,2.79,2.79,0,0,0,.11-.77q0-1.33-1.26-1.33a4,4,0,0,0-2.21.92A12.5,12.5,0,0,0,174.23,97a15.06,15.06,0,0,0-1.93,3.1,7.72,7.72,0,0,0-.79,3.28A3,3,0,0,0,172,105a1.54,1.54,0,0,0,1.39.68,6.58,6.58,0,0,0,2.9-.83,18.83,18.83,0,0,0,3.19-2.05A26.74,26.74,0,0,0,185,96.75Z" transform="translate(-10.4 -58.39)"/><path class="cls-1" d="M201.39,96.89a7,7,0,0,1-1.94,1.55,4.49,4.49,0,0,1-2.12.58,3.2,3.2,0,0,1-1.73-.45,3.51,3.51,0,0,1-1.12-1.06h-.07a10.68,10.68,0,0,1-1.33,2.92,14.93,14.93,0,0,1-2.32,2.84,13.34,13.34,0,0,1-3,2.16,7,7,0,0,1-3.31.86,3,3,0,0,1-2.34-.9,3.52,3.52,0,0,1-.79-2.41,5.27,5.27,0,0,1,.4-1.84,10.75,10.75,0,0,1,1.1-2.11,16.15,16.15,0,0,1,1.66-2.09,14.2,14.2,0,0,1,2.07-1.84,10.51,10.51,0,0,1,2.36-1.3,6.81,6.81,0,0,1,2.5-.49,3,3,0,0,1,2.29.86,3.41,3.41,0,0,1,.88,2.23,2.44,2.44,0,0,0,.77,1.53,2.6,2.6,0,0,0,1.93.7,4.07,4.07,0,0,0,2-.54,7.79,7.79,0,0,0,1.78-1.4Zm-18.11,6.95a2.63,2.63,0,0,0,.36,1.48,1.21,1.21,0,0,0,1.08.54,4,4,0,0,0,1.93-.52,8.69,8.69,0,0,0,1.84-1.37,12.92,12.92,0,0,0,1.64-1.93,16.14,16.14,0,0,0,1.31-2.23,14.74,14.74,0,0,0,.88-2.25,7.12,7.12,0,0,0,.32-2,2.12,2.12,0,0,0-.38-1.28,1.35,1.35,0,0,0-1.17-.52,3.33,3.33,0,0,0-1.62.49,9.92,9.92,0,0,0-1.75,1.28,13,13,0,0,0-1.67,1.84,19.11,19.11,0,0,0-1.42,2.16,12.12,12.12,0,0,0-1,2.23A6.82,6.82,0,0,0,183.28,103.84Z" transform="translate(-10.4 -58.39)"/></svg>

